ply
format ascii 1.0
comment Created by Blender 2.69 (sub 0) - www.blender.org, source file: ''
element vertex 176
property float x
property float y
property float z
property float nx
property float ny
property float nz
element face 62
property list uchar uint vertex_indices
end_header
0.000000 -12.700801 0.900000 -0.850958 -0.054919 0.522355
-1.089672 -12.700802 -0.875161 -0.850958 -0.054919 0.522355
-0.900000 -15.876001 -0.900000 -0.850958 -0.054919 0.522355
-1.089672 -12.700802 -0.875161 -0.013497 0.049437 -0.998686
0.748273 -12.700802 -0.900000 -0.013497 0.049437 -0.998686
0.900000 -15.876001 -1.059229 -0.013497 0.049437 -0.998686
0.059652 6.350401 0.900000 -0.905027 0.017003 0.425014
-0.785653 6.350400 -0.900000 -0.905027 0.017003 0.425014
0.000000 3.175201 0.900000 -0.905027 0.017003 0.425014
0.000000 -12.700801 0.900000 0.923391 -0.000000 0.383860
0.000000 -15.876001 0.900000 0.923391 -0.000000 0.383860
0.748273 -12.700802 -0.900000 0.923391 -0.000000 0.383860
-0.059652 15.876001 0.900000 -0.000000 1.000000 -0.000000
0.900000 15.876001 -1.032691 -0.000000 1.000000 -0.000000
-0.900000 15.876001 -0.900000 -0.000000 1.000000 -0.000000
0.000000 9.525601 0.900000 -0.870064 -0.016346 0.492667
-1.103747 9.525600 -1.049251 -0.870064 -0.016346 0.492667
0.059652 6.350401 0.900000 -0.870064 -0.016346 0.492667
0.099420 12.700802 0.900000 -0.896051 0.028057 0.443063
-0.790611 12.700801 -0.900000 -0.896051 0.028057 0.443063
0.000000 9.525601 0.900000 -0.896051 0.028057 0.443063
-0.059652 15.876001 0.900000 -0.905675 -0.031201 0.422823
-0.900000 15.876001 -0.900000 -0.905675 -0.031201 0.422823
-0.790611 12.700801 -0.900000 -0.905675 -0.031201 0.422823
0.000000 -15.876001 0.900000 0.000000 -1.000000 0.000000
-0.900000 -15.876001 -0.900000 0.000000 -1.000000 0.000000
0.900000 -15.876001 -1.059229 0.000000 -1.000000 0.000000
0.000000 3.175201 0.900000 -0.871871 -0.028661 0.488895
-1.009337 3.175200 -0.900000 -0.871871 -0.028661 0.488895
0.104379 0.000001 0.900000 -0.871871 -0.028661 0.488895
0.104379 0.000001 0.900000 -0.872894 0.028695 0.487065
-0.900000 -0.000001 -0.900000 -0.872894 0.028695 0.487065
0.000000 -3.175200 0.900000 -0.872894 0.028695 0.487065
0.000000 -3.175200 0.900000 -0.855458 0.000000 0.517872
-1.089672 -3.175201 -0.900000 -0.855458 0.000000 0.517872
0.000000 -6.350400 0.900000 -0.855458 0.000000 0.517872
0.000000 -6.350400 0.900000 -0.857809 -0.061479 0.510278
-1.070752 -6.350401 -0.900000 -0.857809 -0.061479 0.510278
-0.843188 -9.525601 -0.900000 -0.857809 -0.061479 0.510278
0.000000 -9.525600 0.900000 -0.905568 0.000000 0.424202
-0.843188 -9.525601 -0.900000 -0.905568 0.000000 0.424202
0.000000 -12.700801 0.900000 -0.905568 0.000000 0.424202
-0.900000 15.876001 -0.900000 -0.073454 -0.041641 -0.996429
0.900000 15.876001 -1.032691 -0.073454 -0.041641 -0.996429
0.900000 12.700801 -0.900000 -0.073454 -0.041641 -0.996429
-0.790611 12.700801 -0.900000 0.000000 0.000000 -1.000000
0.900000 12.700801 -0.900000 0.000000 0.000000 -1.000000
0.900000 9.525600 -0.900000 0.000000 0.000000 -1.000000
-1.103747 9.525600 -1.049251 0.074280 0.000000 -0.997237
0.900000 9.525600 -0.900000 0.074280 0.000000 -0.997237
0.900000 6.350400 -0.900000 0.074280 0.000000 -0.997237
-0.785653 6.350400 -0.900000 0.000000 0.063592 -0.997976
0.900000 6.350400 -0.900000 0.000000 0.063592 -0.997976
0.994862 3.175200 -1.102327 0.000000 0.063592 -0.997976
-1.009337 3.175200 -0.900000 -0.100251 -0.061482 -0.993061
0.994862 3.175200 -1.102327 -0.100251 -0.061482 -0.993061
0.937945 -0.000001 -0.900000 -0.100251 -0.061482 -0.993061
-0.900000 -0.000001 -0.900000 0.000000 0.000000 -1.000000
0.937945 -0.000001 -0.900000 0.000000 0.000000 -1.000000
1.032755 -3.175201 -0.900000 0.000000 0.000000 -1.000000
-1.089672 -3.175201 -0.900000 0.000000 0.083289 -0.996525
1.032755 -3.175201 -0.900000 0.000000 0.083289 -0.996525
0.748273 -6.350401 -1.165382 0.000000 0.083289 -0.996525
-1.070752 -6.350401 -0.900000 -0.143788 -0.089245 -0.985576
0.748273 -6.350401 -1.165382 -0.143788 -0.089245 -0.985576
0.900000 -9.525601 -0.900000 -0.143788 -0.089245 -0.985576
-0.843188 -9.525601 -0.900000 0.000000 0.000000 -1.000000
0.900000 -9.525601 -0.900000 0.000000 0.000000 -1.000000
0.748273 -12.700802 -0.900000 0.000000 0.000000 -1.000000
0.900000 15.876001 -1.032691 0.895510 0.018582 0.444654
-0.059652 15.876001 0.900000 0.895510 0.018582 0.444654
0.900000 12.700801 -0.900000 0.895510 0.018582 0.444654
0.900000 12.700801 -0.900000 0.913329 -0.028598 0.406218
0.099420 12.700802 0.900000 0.913329 -0.028598 0.406218
0.000000 9.525601 0.900000 0.913329 -0.028598 0.406218
0.900000 9.525600 -0.900000 0.894301 0.016801 0.447151
0.000000 9.525601 0.900000 0.894301 0.016801 0.447151
0.059652 6.350401 0.900000 0.894301 0.016801 0.447151
0.900000 6.350400 -0.900000 0.905985 -0.017021 0.422968
0.059652 6.350401 0.900000 0.905985 -0.017021 0.422968
0.000000 3.175201 0.900000 0.905985 -0.017021 0.422968
0.994862 3.175200 -1.102327 0.895164 0.029427 0.444765
0.000000 3.175201 0.900000 0.895164 0.029427 0.444765
0.104379 0.000001 0.900000 0.895164 0.029427 0.444765
0.937945 -0.000001 -0.900000 0.907019 -0.029816 0.420033
0.104379 0.000001 0.900000 0.907019 -0.029816 0.420033
0.000000 -3.175200 0.900000 0.907019 -0.029816 0.420033
1.032755 -3.175201 -0.900000 0.867373 -0.000000 0.497658
0.000000 -3.175200 0.900000 0.867373 -0.000000 0.497658
0.000000 -6.350400 0.900000 0.867373 -0.000000 0.497658
0.748273 -6.350401 -1.165382 0.940198 -0.000000 0.340627
0.000000 -6.350400 0.900000 0.940198 -0.000000 0.340627
0.000000 -9.525600 0.900000 0.940198 -0.000000 0.340627
0.900000 -9.525601 -0.900000 0.894427 -0.000000 0.447214
0.000000 -9.525600 0.900000 0.894427 -0.000000 0.447214
0.000000 -12.700801 0.900000 0.894427 -0.000000 0.447214
0.000000 -15.876001 0.900000 -0.894427 0.000000 0.447214
0.000000 -12.700801 0.900000 -0.894427 0.000000 0.447214
-0.900000 -15.876001 -0.900000 -0.894427 0.000000 0.447214
-0.900000 -15.876001 -0.900000 -0.088116 0.002529 -0.996107
-1.089672 -12.700802 -0.875161 -0.088116 0.002529 -0.996107
0.900000 -15.876001 -1.059229 -0.088116 0.002529 -0.996107
-0.785653 6.350400 -0.900000 -0.870588 0.061330 0.488176
-1.009337 3.175200 -0.900000 -0.870588 0.061330 0.488176
0.000000 3.175201 0.900000 -0.870588 0.061330 0.488176
0.748273 -12.700802 -0.900000 0.908480 0.022484 0.417323
0.000000 -15.876001 0.900000 0.908480 0.022484 0.417323
0.900000 -15.876001 -1.059229 0.908480 0.022484 0.417323
-0.790611 12.700801 -0.900000 -0.868478 0.062533 0.491768
-1.103747 9.525600 -1.049251 -0.868478 0.062533 0.491768
0.000000 9.525601 0.900000 -0.868478 0.062533 0.491768
-0.843188 -9.525601 -0.900000 -0.850149 0.070078 0.521859
-1.089672 -12.700802 -0.875161 -0.850149 0.070078 0.521859
0.000000 -12.700801 0.900000 -0.850149 0.070078 0.521859
0.099420 12.700802 0.900000 -0.895501 -0.044863 0.442792
-0.059652 15.876001 0.900000 -0.895501 -0.044863 0.442792
-0.790611 12.700801 -0.900000 -0.895501 -0.044863 0.442792
-1.009337 3.175200 -0.900000 -0.872859 -0.030057 0.487045
-0.900000 -0.000001 -0.900000 -0.872859 -0.030057 0.487045
0.104379 0.000001 0.900000 -0.872859 -0.030057 0.487045
-0.900000 -0.000001 -0.900000 -0.854344 0.051035 0.517197
-1.089672 -3.175201 -0.900000 -0.854344 0.051035 0.517197
0.000000 -3.175200 0.900000 -0.854344 0.051035 0.517197
-1.089672 -3.175201 -0.900000 -0.859424 -0.005121 0.511239
-1.070752 -6.350401 -0.900000 -0.859424 -0.005121 0.511239
0.000000 -6.350400 0.900000 -0.859424 -0.005121 0.511239
0.000000 -6.350400 0.900000 -0.905568 0.000000 0.424202
-0.059652 15.876001 0.900000 0.912747 0.045727 0.405959
0.099420 12.700802 0.900000 0.912747 0.045727 0.405959
0.900000 12.700801 -0.900000 0.912747 0.045727 0.405959
-0.900000 15.876001 -0.900000 -0.000000 -0.000000 -1.000000
-1.103747 9.525600 -1.049251 0.074222 0.039519 -0.996458
-0.790611 12.700801 -0.900000 0.074222 0.039519 -0.996458
0.900000 9.525600 -0.900000 0.074222 0.039519 -0.996458
-0.785653 6.350400 -0.900000 0.000000 -0.046953 -0.998897
-1.103747 9.525600 -1.049251 0.000000 -0.046953 -0.998897
0.900000 6.350400 -0.900000 0.000000 -0.046953 -0.998897
-1.009337 3.175200 -0.900000 -0.100438 0.007076 -0.994918
-0.785653 6.350400 -0.900000 -0.100438 0.007076 -0.994918
0.994862 3.175200 -1.102327 -0.100438 0.007076 -0.994918
-1.009337 3.175200 -0.900000 -0.000000 -0.000000 -1.000000
-1.089672 -3.175201 -0.900000 -0.000000 0.000000 -1.000000
-1.070752 -6.350401 -0.900000 -0.144364 -0.000860 -0.989524
-1.089672 -3.175201 -0.900000 -0.144364 -0.000860 -0.989524
0.748273 -6.350401 -1.165382 -0.144364 -0.000860 -0.989524
-1.070752 -6.350401 -0.900000 -0.000000 -0.000000 -1.000000
-1.089672 -12.700802 -0.875161 -0.013513 -0.006773 -0.999886
-0.843188 -9.525601 -0.900000 -0.013513 -0.006773 -0.999886
0.748273 -12.700802 -0.900000 -0.013513 -0.006773 -0.999886
0.900000 9.525600 -0.900000 0.894427 0.000000 0.447214
0.900000 12.700801 -0.900000 0.894427 0.000000 0.447214
0.000000 9.525601 0.900000 0.894427 0.000000 0.447214
0.900000 6.350400 -0.900000 0.906116 0.000000 0.423029
0.900000 9.525600 -0.900000 0.906116 0.000000 0.423029
0.059652 6.350401 0.900000 0.906116 0.000000 0.423029
0.994862 3.175200 -1.102327 0.895550 -0.001598 0.444957
0.900000 6.350400 -0.900000 0.895550 -0.001598 0.444957
0.000000 3.175201 0.900000 0.895550 -0.001598 0.444957
0.937945 -0.000001 -0.900000 0.907372 0.010510 0.420197
0.994862 3.175200 -1.102327 0.907372 0.010510 0.420197
0.104379 0.000001 0.900000 0.907372 0.010510 0.420197
1.032755 -3.175201 -0.900000 0.867083 0.025891 0.497491
0.937945 -0.000001 -0.900000 0.867083 0.025891 0.497491
0.000000 -3.175200 0.900000 0.867083 0.025891 0.497491
0.748273 -6.350401 -1.165382 0.934283 -0.111997 0.338484
1.032755 -3.175201 -0.900000 0.934283 -0.111997 0.338484
0.000000 -6.350400 0.900000 0.934283 -0.111997 0.338484
0.900000 -9.525601 -0.900000 0.891570 0.079862 0.445785
0.748273 -6.350401 -1.165382 0.891570 0.079862 0.445785
0.000000 -9.525600 0.900000 0.891570 0.079862 0.445785
0.748273 -12.700802 -0.900000 0.922494 -0.044081 0.383487
0.900000 -9.525601 -0.900000 0.922494 -0.044081 0.383487
0.000000 -12.700801 0.900000 0.922494 -0.044081 0.383487
-1.103747 9.525600 -1.049251 -0.902904 -0.070523 0.424017
-0.785653 6.350400 -0.900000 -0.902904 -0.070523 0.424017
0.059652 6.350401 0.900000 -0.902904 -0.070523 0.424017
3 0 1 2
3 3 4 5
3 6 7 8
3 9 10 11
3 12 13 14
3 15 16 17
3 18 19 20
3 21 22 23
3 24 25 26
3 27 28 29
3 30 31 32
3 33 34 35
3 36 37 38
3 39 40 41
3 42 43 44
3 45 46 47
3 48 49 50
3 51 52 53
3 54 55 56
3 57 58 59
3 60 61 62
3 63 64 65
3 66 67 68
3 69 70 71
3 72 73 74
3 75 76 77
3 78 79 80
3 81 82 83
3 84 85 86
3 87 88 89
3 90 91 92
3 93 94 95
3 96 97 98
3 99 100 101
3 102 103 104
3 105 106 107
3 108 109 110
3 111 112 113
3 114 115 116
3 117 118 119
3 120 121 122
3 123 124 125
3 39 126 40
3 127 128 129
3 45 130 46
3 131 132 133
3 134 135 136
3 137 138 139
3 57 140 58
3 141 57 59
3 142 143 144
3 66 145 67
3 146 147 148
3 149 150 151
3 152 153 154
3 155 156 157
3 158 159 160
3 161 162 163
3 164 165 166
3 167 168 169
3 170 171 172
3 173 174 175
