ply
format ascii 1.0
comment Created by Blender 2.69 (sub 0) - www.blender.org, source file: 'meshes.blend'
element vertex 176
property float x
property float y
property float z
property float nx
property float ny
property float nz
element face 62
property list uchar uint vertex_indices
end_header
0.000000 -17.153282 0.900000 -0.851587 -0.039257 0.522741
-1.089672 -17.153284 -0.875161 -0.851587 -0.039257 0.522741
-0.900000 -21.598562 -0.900000 -0.851587 -0.039257 0.522741
-1.089672 -17.153284 -0.875161 -0.013505 0.035333 -0.999284
0.748273 -17.153284 -0.900000 -0.013505 0.035333 -0.999284
0.900000 -21.598562 -1.059229 -0.013505 0.035333 -0.999284
0.059652 9.518398 0.900000 -0.905091 0.012146 0.425044
-0.785653 9.518397 -0.900000 -0.905091 0.012146 0.425044
0.000000 5.073119 0.900000 -0.905091 0.012146 0.425044
0.000000 -17.153282 0.900000 0.923391 -0.000000 0.383860
0.000000 -21.598562 0.900000 0.923391 -0.000000 0.383860
0.748273 -17.153284 -0.900000 0.923391 -0.000000 0.383860
-0.059652 22.854239 0.900000 -0.000000 1.000000 -0.000000
0.900000 22.854239 -1.032691 -0.000000 1.000000 -0.000000
-0.900000 22.854239 -0.900000 -0.000000 1.000000 -0.000000
0.000000 13.963679 0.900000 -0.870121 -0.011676 0.492699
-1.103747 13.963678 -1.049251 -0.870121 -0.011676 0.492699
0.059652 9.518398 0.900000 -0.870121 -0.011676 0.492699
0.099420 18.408960 0.900000 -0.896224 0.020044 0.443149
-0.790611 18.408960 -0.900000 -0.896224 0.020044 0.443149
0.000000 13.963679 0.900000 -0.896224 0.020044 0.443149
-0.059652 22.854239 0.900000 -0.905891 -0.022292 0.422924
-0.900000 22.854239 -0.900000 -0.905891 -0.022292 0.422924
-0.790611 18.408960 -0.900000 -0.905891 -0.022292 0.422924
0.000000 -21.598562 0.900000 0.000000 -1.000000 0.000000
-0.900000 -21.598562 -0.900000 0.000000 -1.000000 0.000000
0.900000 -21.598562 -1.059229 0.000000 -1.000000 0.000000
0.000000 5.073119 0.900000 -0.872047 -0.020476 0.488994
-1.009337 5.073117 -0.900000 -0.872047 -0.020476 0.488994
0.104379 0.627838 0.900000 -0.872047 -0.020476 0.488994
0.104379 0.627838 0.900000 -0.873070 0.020500 0.487163
-0.900000 0.627837 -0.900000 -0.873070 0.020500 0.487163
0.000000 -3.817441 0.900000 -0.873070 0.020500 0.487163
0.000000 -3.817441 0.900000 -0.855458 0.000000 0.517872
-1.089672 -3.817444 -0.900000 -0.855458 0.000000 0.517872
0.000000 -8.262723 0.900000 -0.855458 0.000000 0.517872
0.000000 -8.262723 0.900000 -0.858604 -0.043954 0.510751
-1.070752 -8.262724 -0.900000 -0.858604 -0.043954 0.510751
-0.843188 -12.708005 -0.900000 -0.858604 -0.043954 0.510751
0.000000 -12.708003 0.900000 -0.905568 0.000000 0.424202
-0.843188 -12.708005 -0.900000 -0.905568 0.000000 0.424202
0.000000 -17.153282 0.900000 -0.905568 0.000000 0.424202
-0.900000 22.854239 -0.900000 -0.073485 -0.029756 -0.996852
0.900000 22.854239 -1.032691 -0.073485 -0.029756 -0.996852
0.900000 18.408960 -0.900000 -0.073485 -0.029756 -0.996852
-0.790611 18.408960 -0.900000 0.000000 0.000000 -1.000000
0.900000 18.408960 -0.900000 0.000000 0.000000 -1.000000
0.900000 13.963678 -0.900000 0.000000 0.000000 -1.000000
-1.103747 13.963678 -1.049251 0.074280 0.000000 -0.997237
0.900000 13.963678 -0.900000 0.074280 0.000000 -0.997237
0.900000 9.518397 -0.900000 0.074280 0.000000 -0.997237
-0.785653 9.518397 -0.900000 0.000000 0.045468 -0.998966
0.900000 9.518397 -0.900000 0.000000 0.045468 -0.998966
0.994862 5.073117 -1.102327 0.000000 0.045468 -0.998966
-1.009337 5.073117 -0.900000 -0.100344 -0.043956 -0.993981
0.994862 5.073117 -1.102327 -0.100344 -0.043956 -0.993981
0.937945 0.627837 -0.900000 -0.100344 -0.043956 -0.993981
-0.900000 0.627837 -0.900000 0.000000 0.000000 -1.000000
0.937945 0.627837 -0.900000 0.000000 0.000000 -1.000000
1.032755 -3.817444 -0.900000 0.000000 0.000000 -1.000000
-1.089672 -3.817444 -0.900000 0.000000 0.059594 -0.998223
1.032755 -3.817444 -0.900000 0.000000 0.059594 -0.998223
0.748273 -8.262724 -1.165382 0.000000 0.059594 -0.998223
-1.070752 -8.262724 -0.900000 -0.144070 -0.063871 -0.987504
0.748273 -8.262724 -1.165382 -0.144070 -0.063871 -0.987504
0.900000 -12.708005 -0.900000 -0.144070 -0.063871 -0.987504
-0.843188 -12.708005 -0.900000 0.000000 0.000000 -1.000000
0.900000 -12.708005 -0.900000 0.000000 0.000000 -1.000000
0.748273 -17.153284 -0.900000 0.000000 0.000000 -1.000000
0.900000 22.854239 -1.032691 0.895586 0.013274 0.444691
-0.059652 22.854239 0.900000 0.895586 0.013274 0.444691
0.900000 18.408960 -0.900000 0.895586 0.013274 0.444691
0.900000 18.408960 -0.900000 0.913512 -0.020431 0.406299
0.099420 18.408960 0.900000 0.913512 -0.020431 0.406299
0.000000 13.963679 0.900000 0.913512 -0.020431 0.406299
0.900000 13.963678 -0.900000 0.894363 0.012002 0.447181
0.000000 13.963679 0.900000 0.894363 0.012002 0.447181
0.059652 9.518398 0.900000 0.894363 0.012002 0.447181
0.900000 9.518397 -0.900000 0.906049 -0.012158 0.422998
0.059652 9.518398 0.900000 0.906049 -0.012158 0.422998
0.000000 5.073119 0.900000 0.906049 -0.012158 0.422998
0.994862 5.073117 -1.102327 0.895354 0.021024 0.444859
0.000000 5.073119 0.900000 0.895354 0.021024 0.444859
0.104379 0.627838 0.900000 0.895354 0.021024 0.444859
0.937945 0.627837 -0.900000 0.907216 -0.021302 0.420125
0.104379 0.627838 0.900000 0.907216 -0.021302 0.420125
0.000000 -3.817441 0.900000 0.907216 -0.021302 0.420125
1.032755 -3.817444 -0.900000 0.867373 -0.000000 0.497658
0.000000 -3.817441 0.900000 0.867373 -0.000000 0.497658
0.000000 -8.262723 0.900000 0.867373 -0.000000 0.497658
0.748273 -8.262724 -1.165382 0.940199 -0.000000 0.340627
0.000000 -8.262723 0.900000 0.940199 -0.000000 0.340627
0.000000 -12.708003 0.900000 0.940199 -0.000000 0.340627
0.900000 -12.708005 -0.900000 0.894427 -0.000000 0.447214
0.000000 -12.708003 0.900000 0.894427 -0.000000 0.447214
0.000000 -17.153282 0.900000 0.894427 -0.000000 0.447214
0.000000 -21.598562 0.900000 -0.894427 0.000000 0.447214
0.000000 -17.153282 0.900000 -0.894427 0.000000 0.447214
-0.900000 -21.598562 -0.900000 -0.894427 0.000000 0.447214
-0.900000 -21.598562 -0.900000 -0.088116 0.001806 -0.996108
-1.089672 -17.153284 -0.875161 -0.088116 0.001806 -0.996108
0.900000 -21.598562 -1.059229 -0.088116 0.001806 -0.996108
-0.785653 9.518397 -0.900000 -0.871391 0.043848 0.488626
-1.009337 5.073117 -0.900000 -0.871391 0.043848 0.488626
0.000000 5.073119 0.900000 -0.871391 0.043848 0.488626
0.748273 -17.153284 -0.900000 0.908592 0.016062 0.417375
0.000000 -21.598562 0.900000 0.908592 0.016062 0.417375
0.900000 -21.598562 -1.059229 0.908592 0.016062 0.417375
-0.790611 18.408960 -0.900000 -0.869311 0.044709 0.492240
-1.103747 13.963678 -1.049251 -0.869311 0.044709 0.492240
0.000000 13.963679 0.900000 -0.869311 0.044709 0.492240
-0.843188 -12.708005 -0.900000 -0.851173 0.050116 0.522487
-1.089672 -17.153284 -0.875161 -0.851173 0.050116 0.522487
0.000000 -17.153282 0.900000 -0.851173 0.050116 0.522487
0.099420 18.408960 0.900000 -0.895943 -0.032061 0.443010
-0.059652 22.854239 0.900000 -0.895943 -0.032061 0.443010
-0.790611 18.408960 -0.900000 -0.895943 -0.032061 0.443010
-1.009337 5.073117 -0.900000 -0.873053 -0.021474 0.487153
-0.900000 0.627837 -0.900000 -0.873053 -0.021474 0.487153
0.104379 0.627838 0.900000 -0.873053 -0.021474 0.487153
-0.900000 0.627837 -0.900000 -0.854889 0.036477 0.517527
-1.089672 -3.817444 -0.900000 -0.854889 0.036477 0.517527
0.000000 -3.817441 0.900000 -0.854889 0.036477 0.517527
-1.089672 -3.817444 -0.900000 -0.859429 -0.003658 0.511242
-1.070752 -8.262724 -0.900000 -0.859429 -0.003658 0.511242
0.000000 -8.262723 0.900000 -0.859429 -0.003658 0.511242
0.000000 -8.262723 0.900000 -0.905568 0.000000 0.424202
-0.059652 22.854239 0.900000 0.913214 0.032679 0.406167
0.099420 18.408960 0.900000 0.913214 0.032679 0.406167
0.900000 18.408960 -0.900000 0.913214 0.032679 0.406167
-0.900000 22.854239 -0.900000 -0.000000 -0.000000 -1.000000
-1.103747 13.963678 -1.049251 0.074250 0.028239 -0.996840
-0.790611 18.408960 -0.900000 0.074250 0.028239 -0.996840
0.900000 13.963678 -0.900000 0.074250 0.028239 -0.996840
-0.785653 9.518397 -0.900000 0.000000 -0.033556 -0.999437
-1.103747 13.963678 -1.049251 0.000000 -0.033556 -0.999437
0.900000 9.518397 -0.900000 0.000000 -0.033556 -0.999437
-1.009337 5.073117 -0.900000 -0.100440 0.005054 -0.994930
-0.785653 9.518397 -0.900000 -0.100440 0.005054 -0.994930
0.994862 5.073117 -1.102327 -0.100440 0.005054 -0.994930
-1.009337 5.073117 -0.900000 -0.000000 -0.000000 -1.000000
-1.089672 -3.817444 -0.900000 -0.000000 0.000000 -1.000000
-1.070752 -8.262724 -0.900000 -0.144364 -0.000614 -0.989524
-1.089672 -3.817444 -0.900000 -0.144364 -0.000614 -0.989524
0.748273 -8.262724 -1.165382 -0.144364 -0.000614 -0.989524
-1.070752 -8.262724 -0.900000 -0.000000 -0.000000 -1.000000
-1.089672 -17.153284 -0.875161 -0.013513 -0.004838 -0.999897
-0.843188 -12.708005 -0.900000 -0.013513 -0.004838 -0.999897
0.748273 -17.153284 -0.900000 -0.013513 -0.004838 -0.999897
0.900000 13.963678 -0.900000 0.894427 0.000000 0.447214
0.900000 18.408960 -0.900000 0.894427 0.000000 0.447214
0.000000 13.963679 0.900000 0.894427 0.000000 0.447214
0.900000 9.518397 -0.900000 0.906116 0.000000 0.423029
0.900000 13.963678 -0.900000 0.906116 0.000000 0.423029
0.059652 9.518398 0.900000 0.906116 0.000000 0.423029
0.994862 5.073117 -1.102327 0.895551 -0.001141 0.444957
0.900000 9.518397 -0.900000 0.895551 -0.001141 0.444957
0.000000 5.073119 0.900000 0.895551 -0.001141 0.444957
0.937945 0.627837 -0.900000 0.907396 0.007507 0.420208
0.994862 5.073117 -1.102327 0.907396 0.007507 0.420208
0.104379 0.627838 0.900000 0.907396 0.007507 0.420208
1.032755 -3.817444 -0.900000 0.867225 0.018496 0.497573
0.937945 0.627837 -0.900000 0.867225 0.018496 0.497573
0.000000 -3.817441 0.900000 0.867225 0.018496 0.497573
0.748273 -8.262724 -1.165382 0.937167 -0.080245 0.339529
1.032755 -3.817444 -0.900000 0.937167 -0.080245 0.339529
0.000000 -8.262723 0.900000 0.937167 -0.080245 0.339529
0.900000 -12.708005 -0.900000 0.892966 0.057134 0.446483
0.748273 -8.262724 -1.165382 0.892966 0.057134 0.446483
0.000000 -12.708003 0.900000 0.892966 0.057134 0.446483
0.748273 -17.153284 -0.900000 0.922933 -0.031502 0.383670
0.900000 -12.708005 -0.900000 0.922933 -0.031502 0.383670
0.000000 -17.153282 0.900000 0.922933 -0.031502 0.383670
-1.103747 13.963678 -1.049251 -0.904006 -0.050435 0.424534
-0.785653 9.518397 -0.900000 -0.904006 -0.050435 0.424534
0.059652 9.518398 0.900000 -0.904006 -0.050435 0.424534
3 0 1 2
3 3 4 5
3 6 7 8
3 9 10 11
3 12 13 14
3 15 16 17
3 18 19 20
3 21 22 23
3 24 25 26
3 27 28 29
3 30 31 32
3 33 34 35
3 36 37 38
3 39 40 41
3 42 43 44
3 45 46 47
3 48 49 50
3 51 52 53
3 54 55 56
3 57 58 59
3 60 61 62
3 63 64 65
3 66 67 68
3 69 70 71
3 72 73 74
3 75 76 77
3 78 79 80
3 81 82 83
3 84 85 86
3 87 88 89
3 90 91 92
3 93 94 95
3 96 97 98
3 99 100 101
3 102 103 104
3 105 106 107
3 108 109 110
3 111 112 113
3 114 115 116
3 117 118 119
3 120 121 122
3 123 124 125
3 39 126 40
3 127 128 129
3 45 130 46
3 131 132 133
3 134 135 136
3 137 138 139
3 57 140 58
3 141 57 59
3 142 143 144
3 66 145 67
3 146 147 148
3 149 150 151
3 152 153 154
3 155 156 157
3 158 159 160
3 161 162 163
3 164 165 166
3 167 168 169
3 170 171 172
3 173 174 175
