ply
format ascii 1.0
comment Created by Blender 2.69 (sub 0) - www.blender.org, source file: 'meshes.blend'
element vertex 128
property float x
property float y
property float z
property float nx
property float ny
property float nz
element face 94
property list uchar uint vertex_indices
end_header
-0.752694 0.754836 0.752694 0.000000 1.000000 -0.000000
0.756919 0.754836 0.752694 0.000000 1.000000 -0.000000
0.681439 0.754836 0.677213 0.000000 1.000000 -0.000000
0.756919 0.754836 -0.756919 -0.000000 1.000000 0.000000
0.681439 0.754836 -0.681439 -0.000000 1.000000 0.000000
-0.752694 0.754836 -0.756919 -0.000000 1.000000 0.000000
-0.677213 0.754836 -0.681439 -0.000000 1.000000 0.000000
-0.677213 0.754836 0.677213 0.000000 1.000000 0.000000
0.756919 -0.754777 -0.756919 1.000000 0.000000 0.000000
0.756919 0.754836 -0.756919 1.000000 0.000000 0.000000
0.756919 -0.679296 -0.681439 1.000000 0.000000 0.000000
0.756919 0.754836 0.752694 1.000000 -0.000000 0.000000
0.756919 0.679355 0.677213 1.000000 -0.000000 0.000000
0.756919 -0.754777 0.752694 1.000000 0.000000 -0.000000
0.756919 -0.679296 0.677213 1.000000 0.000000 -0.000000
-0.752694 -0.754777 0.752694 0.000000 0.000000 1.000000
-0.677213 -0.679296 0.752694 0.000000 0.000000 1.000000
-0.752694 0.754836 0.752694 0.000000 0.000000 1.000000
0.756919 -0.754777 0.752694 -0.000000 0.000000 1.000000
0.756919 0.754836 0.752694 -0.000000 0.000000 1.000000
0.681439 -0.679296 0.752694 -0.000000 0.000000 1.000000
-0.677213 0.679355 0.752694 0.000000 -0.000000 1.000000
-0.752694 -0.754777 0.752694 -1.000000 0.000000 0.000000
-0.752694 -0.679296 0.677213 -1.000000 0.000000 0.000000
-0.752694 -0.679296 -0.681439 -1.000000 0.000000 0.000000
-0.752694 -0.754777 -0.756919 -1.000000 -0.000000 0.000000
-0.752694 0.754836 -0.756919 -1.000000 -0.000000 0.000000
-0.752694 0.754836 0.752694 -1.000000 0.000000 0.000000
-0.752694 0.679355 -0.681439 -1.000000 0.000000 0.000000
-0.752694 0.679355 0.677213 -1.000000 0.000000 0.000000
-0.752694 -0.754777 -0.756919 -0.000000 0.000000 -1.000000
-0.677213 -0.679296 -0.756919 -0.000000 0.000000 -1.000000
0.681439 -0.679296 -0.756919 -0.000000 0.000000 -1.000000
0.756919 0.754836 -0.756919 0.000000 0.000000 -1.000000
0.756919 -0.754777 -0.756919 0.000000 0.000000 -1.000000
-0.752694 0.754836 -0.756919 0.000000 0.000000 -1.000000
0.681439 0.679355 -0.756919 0.000000 0.000000 -1.000000
-0.677213 0.679355 -0.756919 0.000000 0.000000 -1.000000
-0.752694 -0.754777 0.752694 -0.000000 -1.000000 0.000000
-0.677213 -0.754777 0.677213 -0.000000 -1.000000 0.000000
0.756919 -0.754777 0.752694 -0.000000 -1.000000 0.000000
0.681439 -0.754777 0.677213 0.000000 -1.000000 0.000000
0.681439 -0.754777 -0.681439 0.000000 -1.000000 0.000000
0.756919 -0.754777 -0.756919 0.000000 -1.000000 0.000000
-0.677213 -0.754777 -0.681439 0.000000 -1.000000 0.000000
-0.752694 -0.754777 -0.756919 0.000000 -1.000000 -0.000000
-0.677213 -0.754777 0.677213 -0.000000 -0.000000 -1.000000
-0.677213 -0.678926 0.677213 -0.000000 -0.000000 -1.000000
0.681439 -0.678926 0.677213 -0.000000 -0.000000 -1.000000
0.681439 -0.754777 0.677213 -1.000000 0.000000 0.000000
0.681439 -0.678926 0.677213 -1.000000 0.000000 0.000000
0.681439 -0.678926 -0.681439 -1.000000 0.000000 0.000000
0.681439 -0.754777 -0.681439 -0.000000 0.000000 1.000000
0.681439 -0.678926 -0.681439 -0.000000 0.000000 1.000000
-0.677213 -0.678926 -0.681439 -0.000000 0.000000 1.000000
-0.677213 -0.754777 -0.681439 1.000000 0.000000 0.000000
-0.677213 -0.678926 -0.681439 1.000000 0.000000 0.000000
-0.677213 -0.678926 0.677213 1.000000 0.000000 0.000000
-0.677213 0.754836 0.677213 0.000000 0.000000 -1.000000
0.681439 0.754836 0.677213 0.000000 0.000000 -1.000000
0.681439 0.679360 0.677213 0.000000 0.000000 -1.000000
0.681439 0.754836 0.677213 -1.000000 0.000000 0.000000
0.681439 0.754836 -0.681439 -1.000000 0.000000 0.000000
0.681439 0.679360 -0.681439 -1.000000 0.000000 0.000000
0.681439 0.754836 -0.681439 0.000000 0.000000 1.000000
-0.677213 0.754836 -0.681439 0.000000 0.000000 1.000000
-0.677213 0.679360 -0.681439 0.000000 0.000000 1.000000
-0.677213 0.754836 -0.681439 1.000000 -0.000000 0.000000
-0.677213 0.754836 0.677213 1.000000 -0.000000 0.000000
-0.677213 0.679360 0.677213 1.000000 -0.000000 0.000000
-0.752694 0.679355 -0.681439 0.000055 -1.000000 0.000000
-0.677213 0.679360 -0.681439 0.000055 -1.000000 0.000000
-0.677213 0.679360 0.677213 0.000055 -1.000000 0.000000
-0.677213 0.679355 0.752694 -0.000000 -1.000000 -0.000055
-0.677213 0.679360 0.677213 -0.000000 -1.000000 -0.000055
0.681439 0.679360 0.677213 -0.000000 -1.000000 -0.000055
0.756919 0.679355 0.677213 -0.000055 -1.000000 0.000000
0.681439 0.679360 0.677213 -0.000055 -1.000000 0.000000
0.681439 0.679360 -0.681439 -0.000055 -1.000000 0.000000
0.681439 0.679355 -0.756919 0.000000 -1.000000 0.000055
0.681439 0.679360 -0.681439 0.000000 -1.000000 0.000055
-0.677213 0.679360 -0.681439 0.000000 -1.000000 0.000055
-0.752694 0.679355 -0.681439 0.000000 -0.000000 1.000000
-0.752694 -0.679296 -0.681439 0.000000 -0.000000 1.000000
-0.677213 0.679355 -0.756919 1.000000 -0.000000 0.000000
-0.677213 0.679360 -0.681439 1.000000 -0.000000 0.000000
-0.677213 -0.679296 -0.756919 0.000000 0.999988 -0.004905
-0.677213 -0.678926 -0.681439 0.000000 0.999988 -0.004905
0.681439 -0.678926 -0.681439 0.000000 0.999988 -0.004905
0.681439 -0.679296 -0.756919 -1.000000 -0.000000 0.000000
0.681439 0.679355 -0.756919 -1.000000 -0.000000 0.000000
0.756919 -0.679296 -0.681439 -0.000000 0.000000 1.000000
0.756919 0.679355 -0.681439 -0.000000 0.000000 1.000000
0.756919 -0.679296 -0.681439 0.004905 0.999988 0.000000
0.681439 -0.678926 -0.681439 0.004905 0.999988 0.000000
0.681439 -0.678926 0.677213 0.004905 0.999988 0.000000
0.756919 -0.679296 0.677213 0.000000 -0.000000 -1.000000
0.756919 0.679355 0.677213 0.000000 -0.000000 -1.000000
0.681439 -0.679296 0.752694 -1.000000 0.000000 0.000000
0.681439 0.679355 0.752694 -1.000000 0.000000 0.000000
0.681439 -0.679296 0.752694 -0.000000 0.999988 0.004905
0.681439 -0.678926 0.677213 -0.000000 0.999988 0.004905
-0.677213 -0.678926 0.677213 -0.000000 0.999988 0.004905
-0.752694 -0.679296 0.677213 -0.004905 0.999988 0.000000
-0.677213 -0.678926 0.677213 -0.004905 0.999988 0.000000
-0.677213 -0.678926 -0.681439 -0.004905 0.999988 0.000000
0.756919 0.679355 -0.681439 1.000000 0.000000 0.000000
0.681439 0.679355 0.752694 -0.000000 0.000000 1.000000
0.681439 -0.754777 0.677213 0.000000 -0.000000 -1.000000
0.681439 -0.754777 -0.681439 -1.000000 -0.000000 -0.000000
-0.677213 -0.754777 -0.681439 0.000000 0.000000 1.000000
-0.677213 -0.754777 0.677213 1.000000 0.000000 -0.000000
-0.677213 0.679360 0.677213 -0.000000 -0.000000 -1.000000
0.681439 0.679360 0.677213 -1.000000 0.000000 0.000000
0.681439 0.679360 -0.681439 -0.000000 0.000000 1.000000
-0.752694 0.679355 0.677213 0.000055 -1.000000 0.000000
0.681439 0.679355 0.752694 0.000000 -1.000000 -0.000055
0.756919 0.679355 -0.681439 -0.000055 -1.000000 -0.000000
-0.677213 0.679355 -0.756919 0.000000 -1.000000 0.000055
-0.677213 -0.679296 -0.756919 1.000000 0.000000 0.000000
0.681439 -0.679296 -0.756919 0.000000 0.999988 -0.004905
0.756919 -0.679296 0.677213 0.004905 0.999988 -0.000000
-0.677213 -0.679296 0.752694 0.000000 0.999988 0.004905
-0.752694 -0.679296 -0.681439 -0.004905 0.999988 0.000000
-0.752694 -0.679296 0.677213 -0.000000 0.000000 -1.000000
-0.752694 0.679355 0.677213 -0.000000 0.000000 -1.000000
-0.677213 -0.679296 0.752694 1.000000 0.000000 0.000000
-0.677213 0.679355 0.752694 1.000000 0.000000 0.000000
3 0 1 2
3 1 3 4
3 3 5 6
3 5 0 7
3 8 9 10
3 9 11 12
3 11 13 14
3 8 10 14
3 15 16 17
3 18 19 20
3 19 17 21
3 18 20 16
3 22 23 24
3 25 24 26
3 27 26 28
3 27 29 23
3 30 31 32
3 33 34 32
3 35 33 36
3 35 37 31
3 38 39 40
3 40 41 42
3 43 42 44
3 45 44 39
3 46 47 48
3 49 50 51
3 52 53 54
3 55 56 57
3 58 59 60
3 61 62 63
3 64 65 66
3 67 68 69
3 70 71 72
3 73 74 75
3 76 77 78
3 79 80 81
3 82 83 54
3 84 85 56
3 86 87 88
3 89 51 90
3 91 92 53
3 93 94 95
3 96 48 97
3 98 99 50
3 100 101 102
3 103 104 105
3 7 0 2
3 2 1 4
3 4 3 6
3 6 5 7
3 16 21 17
3 106 9 12
3 12 11 14
3 13 8 14
3 24 28 26
3 9 106 10
3 107 19 21
3 15 18 16
3 25 22 24
3 29 27 28
3 22 27 23
3 34 30 32
3 36 33 32
3 37 35 36
3 30 35 31
3 19 107 20
3 43 40 42
3 45 43 44
3 38 45 39
3 108 46 48
3 109 49 51
3 110 52 54
3 111 55 57
3 112 58 60
3 113 61 63
3 114 64 66
3 85 67 69
3 115 70 72
3 116 73 75
3 117 76 78
3 118 79 81
3 66 82 54
3 119 84 56
3 120 86 88
3 51 63 90
3 92 114 53
3 121 93 95
3 48 60 97
3 99 113 50
3 122 100 102
3 123 103 105
3 39 41 40
4 124 125 112 47
4 126 57 69 127
