ply
format ascii 1.0
comment Created by Blender 2.69 (sub 0) - www.blender.org, source file: ''
element vertex 36
property float x
property float y
property float z
property float nx
property float ny
property float nz
element face 24
property list uchar uint vertex_indices
end_header
0.000001 -3.618809 -0.234000 0.000000 0.000000 -1.000000
-2.847577 1.775832 -0.234000 0.000000 0.000000 -1.000000
0.000000 -2.954450 -0.234000 0.000000 0.000000 -1.000000
3.467454 2.141192 -0.234000 0.000000 -0.000000 -1.000000
2.847576 1.775833 -0.234000 0.000000 -0.000000 -1.000000
0.000001 -3.618809 0.234000 0.000000 0.000000 1.000000
-2.847577 1.775832 0.234000 0.000000 0.000000 1.000000
-3.467455 2.141191 0.234000 0.000000 0.000000 1.000000
3.467454 2.141192 0.234000 -0.000000 0.000000 1.000000
2.847576 1.775833 0.234000 -0.000000 0.000000 1.000000
-2.847577 1.775832 -0.234000 0.856740 0.515748 0.000000
-2.847577 1.775832 0.234000 0.856740 0.515748 0.000000
0.000000 -2.954450 -0.234000 0.856740 0.515748 0.000000
0.000000 -2.954450 -0.234000 -0.856740 0.515748 0.000000
2.847576 1.775833 0.234000 -0.856740 0.515748 0.000000
2.847576 1.775833 -0.234000 -0.856740 0.515748 0.000000
-2.847577 1.775832 -0.234000 0.000000 -1.000000 0.000000
2.847576 1.775833 -0.234000 0.000000 -1.000000 0.000000
2.847576 1.775833 0.234000 0.000000 -1.000000 0.000000
-3.467455 2.141191 0.234000 -0.856740 -0.515748 0.000000
-3.467455 2.141191 -0.234000 -0.856740 -0.515748 0.000000
0.000001 -3.618809 -0.234000 -0.856740 -0.515748 0.000000
3.467454 2.141192 -0.234000 0.856740 -0.515748 0.000000
0.000001 -3.618809 0.234000 0.856740 -0.515748 0.000000
0.000001 -3.618809 -0.234000 0.856740 -0.515748 0.000000
3.467454 2.141192 -0.234000 -0.000000 1.000000 0.000000
-3.467455 2.141191 -0.234000 -0.000000 1.000000 0.000000
-3.467455 2.141191 0.234000 -0.000000 1.000000 0.000000
-3.467455 2.141191 -0.234000 -0.000000 -0.000000 -1.000000
0.000000 -2.954450 0.234000 -0.000000 0.000000 1.000000
0.000000 -2.954450 0.234000 -0.856740 0.515748 0.000000
-2.847577 1.775832 0.234000 0.000000 -1.000000 0.000000
0.000001 -3.618809 0.234000 -0.856740 -0.515748 0.000000
3.467454 2.141192 0.234000 0.856740 -0.515748 0.000000
3.467454 2.141192 0.234000 -0.000000 1.000000 0.000000
0.000000 -2.954450 0.234000 0.856740 0.515748 0.000000
3 0 1 2
3 3 0 4
3 3 4 1
3 5 6 7
3 8 9 5
3 8 7 6
3 10 11 12
3 13 14 15
3 16 17 18
3 19 20 21
3 22 23 24
3 25 26 27
3 28 1 0
3 4 0 2
3 28 3 1
3 29 6 5
3 5 9 29
3 9 8 6
3 30 14 13
3 31 16 18
3 32 19 21
3 33 23 22
3 34 25 27
3 12 11 35
