ply
format ascii 1.0
comment Created by Blender 2.69 (sub 0) - www.blender.org, source file: 'meshes.blend'
element vertex 262
property float x
property float y
property float z
property float nx
property float ny
property float nz
element face 132
property list uchar uint vertex_indices
end_header
-0.044100 0.630000 -0.132300 0.000000 0.440015 -0.897990
-0.132300 0.630000 -0.132300 0.000000 0.440015 -0.897990
0.000000 0.900000 -0.000000 0.000000 0.440015 -0.897990
0.044100 -0.630000 -0.132300 -0.000000 -0.440015 -0.897990
0.132300 -0.630000 -0.132300 -0.000000 -0.440015 -0.897990
0.000000 -0.900000 -0.000000 -0.000000 -0.440015 -0.897990
0.044100 0.630000 0.132300 0.000000 0.440015 0.897990
0.132300 0.630000 0.132300 0.000000 0.440015 0.897990
0.000000 0.900000 -0.000000 0.000000 0.440015 0.897990
-0.132300 0.630000 0.044100 -0.897990 0.440015 0.000000
-0.132300 0.630000 0.132300 -0.897990 0.440015 0.000000
0.000000 0.900000 -0.000000 -0.897990 0.440015 0.000000
0.132300 0.630000 -0.044100 0.897990 0.440015 -0.000000
0.132300 0.630000 -0.132300 0.897990 0.440015 -0.000000
0.000000 0.900000 -0.000000 0.897990 0.440015 -0.000000
-0.044100 -0.630000 0.132300 0.000000 -0.440015 0.897990
-0.132300 -0.630000 0.132300 0.000000 -0.440015 0.897990
0.000000 -0.900000 -0.000000 0.000000 -0.440015 0.897990
-0.132300 -0.630000 -0.044100 -0.897990 -0.440015 0.000000
-0.132300 -0.630000 -0.132300 -0.897990 -0.440015 0.000000
0.000000 -0.900000 -0.000000 -0.897990 -0.440015 0.000000
0.132300 -0.630000 0.044100 0.897990 -0.440015 0.000000
0.132300 -0.630000 0.132300 0.897990 -0.440015 0.000000
0.000000 -0.900000 -0.000000 0.897990 -0.440015 0.000000
-0.311374 -0.000000 -0.441000 0.000000 0.440015 -0.897990
-0.441000 -0.000000 -0.441000 0.000000 0.440015 -0.897990
0.311374 -0.000000 0.441000 -0.000000 0.440015 0.897990
0.441000 -0.000000 0.441000 -0.000000 0.440015 0.897990
-0.441000 -0.000000 0.307012 -0.897990 0.440015 0.000000
-0.441000 -0.000000 0.441000 -0.897990 0.440015 0.000000
0.441000 -0.000000 -0.309734 0.897990 0.440015 0.000000
0.441000 -0.000000 -0.441000 0.897990 0.440015 0.000000
0.311374 -0.000000 -0.441000 -0.000000 -0.440015 -0.897990
0.441000 -0.000000 -0.441000 -0.000000 -0.440015 -0.897990
-0.311374 -0.000000 0.441000 0.000000 -0.440015 0.897990
-0.441000 -0.000000 0.441000 0.000000 -0.440015 0.897990
-0.441000 -0.000000 -0.309734 -0.897990 -0.440015 -0.000000
-0.441000 -0.000000 -0.441000 -0.897990 -0.440015 -0.000000
0.441000 -0.000000 0.312248 0.897990 -0.440015 -0.000000
0.441000 -0.000000 0.441000 0.897990 -0.440015 -0.000000
-0.132300 0.630000 0.132300 0.000000 0.440015 0.897990
-0.044100 0.630000 0.132300 0.000000 0.440015 0.897990
0.000000 0.900000 -0.000000 0.000000 0.440015 0.897990
0.132300 -0.630000 0.132300 0.000000 -0.440015 0.897990
0.044100 -0.630000 0.132300 0.000000 -0.440015 0.897990
0.000000 -0.900000 -0.000000 0.000000 -0.440015 0.897990
0.000000 -0.900000 -0.000000 0.000000 -0.440015 0.897990
-0.441000 -0.000000 0.441000 -0.000000 0.440015 0.897990
-0.311374 -0.000000 0.441000 -0.000000 0.440015 0.897990
0.441000 -0.000000 0.441000 0.000000 -0.440015 0.897990
0.311374 -0.000000 0.441000 0.000000 -0.440015 0.897990
-0.132300 0.630000 -0.132300 -0.897990 0.440015 0.000000
-0.132300 0.630000 -0.044100 -0.897990 0.440015 0.000000
0.000000 0.900000 -0.000000 -0.897990 0.440015 0.000000
0.000000 0.900000 -0.000000 -0.897990 0.440015 0.000000
-0.132300 -0.630000 0.132300 -0.897990 -0.440015 0.000000
-0.132300 -0.630000 0.044100 -0.897990 -0.440015 0.000000
0.000000 -0.900000 -0.000000 -0.897990 -0.440015 0.000000
0.000000 -0.900000 -0.000000 -0.897990 -0.440015 -0.000000
-0.441000 -0.000000 -0.441000 -0.897990 0.440015 0.000000
-0.441000 -0.000000 -0.309734 -0.897990 0.440015 0.000000
-0.441000 -0.000000 0.441000 -0.897990 -0.440015 -0.000000
-0.441000 -0.000000 0.307012 -0.897990 -0.440015 -0.000000
0.132300 0.630000 -0.132300 0.000000 0.440015 -0.897990
0.044100 0.630000 -0.132300 0.000000 0.440015 -0.897990
0.000000 0.900000 -0.000000 0.000000 0.440015 -0.897990
-0.132300 -0.630000 -0.132300 -0.000000 -0.440015 -0.897990
-0.044100 -0.630000 -0.132300 -0.000000 -0.440015 -0.897990
0.000000 -0.900000 -0.000000 -0.000000 -0.440015 -0.897990
0.441000 -0.000000 -0.441000 0.000000 0.440015 -0.897990
0.311374 -0.000000 -0.441000 0.000000 0.440015 -0.897990
-0.441000 -0.000000 -0.441000 -0.000000 -0.440015 -0.897990
-0.311374 -0.000000 -0.441000 -0.000000 -0.440015 -0.897990
0.132300 0.630000 0.132300 0.897990 0.440015 -0.000000
0.132300 0.630000 0.044100 0.897990 0.440015 -0.000000
0.000000 0.900000 -0.000000 0.897990 0.440015 -0.000000
0.000000 0.900000 -0.000000 0.897990 0.440015 -0.000000
0.132300 -0.630000 -0.132300 0.897990 -0.440015 -0.000000
0.132300 -0.630000 -0.044100 0.897990 -0.440015 -0.000000
0.000000 -0.900000 -0.000000 0.897990 -0.440015 -0.000000
0.000000 -0.900000 -0.000000 0.897990 -0.440015 0.000000
0.441000 -0.000000 0.441000 0.897990 0.440015 0.000000
0.441000 -0.000000 0.312248 0.897990 0.440015 0.000000
0.441000 -0.000000 -0.441000 0.897990 -0.440015 -0.000000
0.441000 -0.000000 -0.309734 0.897990 -0.440015 -0.000000
-0.311374 -0.000000 0.309837 0.919601 -0.392744 -0.009258
-0.045037 0.630000 0.039236 0.919601 -0.392744 -0.009258
-0.044100 0.630000 0.132300 0.919601 -0.392744 -0.009258
0.045037 0.630000 0.039236 -0.919601 -0.392744 -0.009258
0.311374 -0.000000 0.309837 -0.919601 -0.392744 -0.009258
0.044100 0.630000 0.132300 -0.919601 -0.392744 -0.009258
0.044100 0.630000 0.132300 0.000000 -1.000000 0.000000
-0.044100 0.630000 0.132300 0.000000 -1.000000 0.000000
-0.045037 0.630000 0.039236 0.000000 -1.000000 0.000000
-0.441000 -0.000000 0.307012 0.020029 -0.393396 -0.919151
-0.132300 0.630000 0.044100 0.020029 -0.393396 -0.919151
-0.311374 -0.000000 0.309837 0.020029 -0.393396 -0.919151
-0.132300 0.630000 0.044100 -0.000000 -1.000000 0.000000
-0.132300 0.630000 -0.044100 -0.000000 -1.000000 0.000000
-0.045037 0.630000 -0.039236 0.000000 -1.000000 0.000000
0.045037 0.630000 -0.039236 0.000000 -1.000000 0.000000
-0.044100 0.630000 -0.132300 -0.000000 -1.000000 0.000000
0.044100 0.630000 -0.132300 -0.000000 -1.000000 0.000000
-0.132300 0.630000 -0.044100 0.000000 -0.388517 0.921441
-0.441000 -0.000000 -0.309734 0.000000 -0.388517 0.921441
-0.311374 -0.000000 -0.309734 0.000000 -0.388517 0.921441
-0.441000 -0.000000 -0.309734 -0.000000 0.388517 0.921441
-0.132300 -0.630000 -0.044100 -0.000000 0.388517 0.921441
-0.311374 -0.000000 -0.309734 -0.000000 0.388517 0.921441
-0.311374 -0.000000 -0.441000 0.920581 0.390551 0.000000
-0.311374 -0.000000 -0.309734 0.920581 0.390551 0.000000
-0.044100 -0.630000 -0.132300 0.920581 0.390551 0.000000
-0.044100 0.630000 -0.132300 0.919602 -0.392743 0.009258
-0.045037 0.630000 -0.039236 0.919602 -0.392743 0.009258
-0.311374 -0.000000 -0.309734 0.919602 -0.392743 0.009258
0.044100 0.630000 -0.132300 -0.920581 -0.390551 -0.000000
0.311374 -0.000000 -0.441000 -0.920581 -0.390551 -0.000000
0.311374 -0.000000 -0.309734 -0.920581 -0.390551 -0.000000
0.311374 -0.000000 -0.441000 -0.920581 0.390551 0.000000
0.044100 -0.630000 -0.132300 -0.920581 0.390551 0.000000
0.311374 -0.000000 -0.309734 -0.920581 0.390551 0.000000
0.441000 -0.000000 -0.309734 -0.000000 0.388517 0.921441
0.311374 -0.000000 -0.309734 -0.000000 0.388517 0.921441
0.132300 -0.630000 -0.044100 -0.000000 0.388517 0.921441
0.132300 0.630000 -0.044100 0.051581 -0.375516 0.925379
0.045037 0.630000 -0.039236 0.051581 -0.375516 0.925379
0.311374 -0.000000 -0.309734 0.051581 -0.375516 0.925379
0.132300 0.630000 0.044100 0.000000 -1.000000 0.000000
0.045037 0.630000 0.039236 0.000000 -1.000000 0.000000
0.441000 -0.000000 0.312248 0.017168 -0.384442 -0.922990
0.311374 -0.000000 0.309837 0.017168 -0.384442 -0.922990
0.132300 0.630000 0.044100 0.017168 -0.384442 -0.922990
0.441000 -0.000000 0.312248 0.017168 0.384442 -0.922990
0.132300 -0.630000 0.044100 0.017168 0.384442 -0.922990
0.311374 -0.000000 0.309837 0.017168 0.384442 -0.922990
0.311374 -0.000000 0.441000 -0.920581 0.390551 0.000000
0.311374 -0.000000 0.309837 -0.920581 0.390551 0.000000
0.044100 -0.630000 0.132300 -0.920581 0.390551 0.000000
0.044100 -0.630000 0.132300 0.000000 1.000000 -0.000000
0.045037 -0.630000 0.039236 0.000000 1.000000 -0.000000
-0.045037 -0.630000 0.039236 0.000000 1.000000 -0.000000
-0.044100 -0.630000 0.132300 0.919601 0.392744 -0.009258
-0.045037 -0.630000 0.039236 0.919601 0.392744 -0.009258
-0.311374 -0.000000 0.309837 0.919601 0.392744 -0.009258
-0.132300 -0.630000 0.044100 0.020029 0.393396 -0.919151
-0.441000 -0.000000 0.307012 0.020029 0.393396 -0.919151
-0.311374 -0.000000 0.309837 0.020029 0.393396 -0.919151
-0.132300 -0.630000 0.044100 0.000000 1.000000 0.000001
-0.045037 -0.630000 0.039236 0.000000 1.000000 0.000001
-0.132300 -0.630000 -0.044100 0.000000 1.000000 0.000001
0.045037 -0.630000 0.039236 0.000000 1.000000 0.000001
0.045037 -0.630000 -0.039236 0.000000 1.000000 0.000001
0.132300 -0.630000 0.044100 0.000001 1.000000 0.000000
0.132300 -0.630000 -0.044100 0.000001 1.000000 0.000000
0.045037 -0.630000 -0.039236 0.000001 1.000000 0.000000
-0.044100 -0.630000 -0.132300 0.000000 1.000000 0.000000
-0.045037 -0.630000 -0.039236 0.000000 1.000000 0.000000
0.044100 -0.630000 -0.132300 0.000000 1.000000 0.000000
0.000000 0.900000 -0.000000 -0.000000 0.440015 0.897990
0.000000 -0.900000 -0.000000 0.000000 -0.440015 0.897990
0.000000 0.900000 -0.000000 0.832050 -0.554700 0.000000
-0.132300 0.630000 0.044100 0.832050 -0.554700 0.000000
0.000000 0.900000 -0.000000 0.832050 -0.554700 0.000000
0.000000 0.900000 -0.000000 -0.832050 -0.554700 0.000000
0.132300 0.630000 -0.044100 -0.832050 -0.554700 0.000000
0.000000 0.900000 -0.000000 -0.832050 -0.554700 0.000000
0.000000 -0.900000 -0.000000 0.832050 0.554700 0.000000
-0.132300 -0.630000 -0.044100 0.832050 0.554700 0.000000
0.000000 -0.900000 -0.000000 0.832050 0.554700 0.000000
0.000000 -0.900000 -0.000000 -0.894427 0.447214 0.000000
0.132300 -0.630000 0.044100 -0.894427 0.447214 0.000000
0.000000 -0.900000 -0.000000 -0.894427 0.447214 0.000000
0.000000 0.900000 -0.000000 -0.000000 0.440015 0.897990
0.000000 0.900000 -0.000000 0.000000 0.447214 0.894427
-0.044100 0.630000 0.132300 0.000000 0.447214 0.894427
0.000000 0.900000 -0.000000 0.000000 0.447214 0.894427
0.000000 -0.900000 -0.000000 0.000000 -0.440015 -0.897990
-0.132300 0.630000 -0.044100 0.897990 -0.440015 0.000000
0.000000 0.900000 -0.000000 0.897990 -0.440015 0.000000
0.000000 0.900000 -0.000000 0.897990 -0.440015 0.000000
0.000000 0.900000 -0.000000 0.894427 -0.447214 0.000000
-0.132300 0.630000 -0.044100 0.894427 -0.447214 0.000000
0.000000 0.900000 -0.000000 0.894427 -0.447214 0.000000
-0.132300 -0.630000 0.044100 0.897990 0.440015 -0.000000
0.000000 -0.900000 -0.000000 0.897990 0.440015 -0.000000
0.000000 -0.900000 -0.000000 0.897990 0.440015 -0.000000
0.000000 -0.900000 -0.000000 0.894427 0.447214 0.000000
-0.132300 -0.630000 0.044100 0.894427 0.447214 0.000000
0.000000 -0.900000 -0.000000 0.894427 0.447214 0.000000
0.000000 0.900000 -0.000000 0.000000 0.440015 -0.897990
0.000000 0.900000 -0.000000 0.000000 0.447214 -0.894427
0.044100 0.630000 -0.132300 0.000000 0.447214 -0.894427
0.000000 0.900000 -0.000000 0.000000 0.447214 -0.894427
0.000000 -0.900000 -0.000000 0.000000 -0.440015 -0.897990
0.000000 -0.900000 -0.000000 0.000000 -0.447214 -0.894427
-0.044100 -0.630000 -0.132300 0.000000 -0.447214 -0.894427
0.000000 -0.900000 -0.000000 0.000000 -0.447214 -0.894427
0.132300 0.630000 0.044100 -0.897990 -0.440015 0.000000
0.000000 0.900000 -0.000000 -0.897990 -0.440015 0.000000
0.000000 0.900000 -0.000000 -0.897990 -0.440015 0.000000
0.000000 0.900000 -0.000000 -0.894427 -0.447214 0.000000
0.132300 0.630000 0.044100 -0.894427 -0.447214 0.000000
0.000000 0.900000 -0.000000 -0.894427 -0.447214 0.000000
0.132300 -0.630000 -0.044100 -0.897990 0.440015 0.000000
0.000000 -0.900000 -0.000000 -0.897990 0.440015 0.000000
0.000000 -0.900000 -0.000000 -0.897990 0.440015 0.000000
0.000000 -0.900000 -0.000000 -0.894427 0.447214 0.000000
0.132300 -0.630000 -0.044100 -0.894427 0.447214 0.000000
-0.311374 -0.000000 0.441000 0.920581 -0.390551 0.000000
-0.311374 -0.000000 0.309837 0.920581 -0.390551 0.000000
-0.044100 0.630000 0.132300 0.920581 -0.390551 0.000000
0.311374 -0.000000 0.309837 -0.920581 -0.390551 -0.000000
0.311374 -0.000000 0.441000 -0.920581 -0.390551 -0.000000
0.044100 0.630000 0.132300 -0.920581 -0.390551 -0.000000
-0.132300 0.630000 0.044100 -0.051578 -0.375647 -0.925327
-0.045037 0.630000 0.039236 -0.051578 -0.375647 -0.925327
-0.311374 -0.000000 0.309837 -0.051578 -0.375647 -0.925327
-0.045037 -0.630000 -0.039236 -0.000000 1.000000 0.000001
-0.045037 0.630000 -0.039236 -0.051581 -0.375516 0.925379
-0.132300 0.630000 -0.044100 -0.051581 -0.375516 0.925379
-0.311374 -0.000000 -0.309734 -0.051581 -0.375516 0.925379
-0.132300 -0.630000 -0.044100 -0.051581 0.375516 0.925379
-0.045037 -0.630000 -0.039236 -0.051581 0.375516 0.925379
-0.311374 -0.000000 -0.309734 -0.051581 0.375516 0.925379
-0.311374 -0.000000 -0.309734 0.919602 0.392743 0.009258
-0.045037 -0.630000 -0.039236 0.919602 0.392743 0.009258
-0.044100 -0.630000 -0.132300 0.919602 0.392743 0.009258
-0.311374 -0.000000 -0.441000 0.920581 -0.390551 0.000000
-0.044100 0.630000 -0.132300 0.920581 -0.390551 0.000000
-0.311374 -0.000000 -0.309734 0.920581 -0.390551 0.000000
0.045037 0.630000 -0.039236 -0.919602 -0.392743 0.009258
0.044100 0.630000 -0.132300 -0.919602 -0.392743 0.009258
0.311374 -0.000000 -0.309734 -0.919602 -0.392743 0.009258
0.044100 -0.630000 -0.132300 -0.919602 0.392743 0.009258
0.045037 -0.630000 -0.039236 -0.919602 0.392743 0.009258
0.311374 -0.000000 -0.309734 -0.919602 0.392743 0.009258
0.311374 -0.000000 -0.309734 0.051581 0.375516 0.925379
0.045037 -0.630000 -0.039236 0.051581 0.375516 0.925379
0.132300 -0.630000 -0.044100 0.051581 0.375516 0.925379
0.441000 -0.000000 -0.309734 0.000000 -0.388517 0.921441
0.132300 0.630000 -0.044100 0.000000 -0.388517 0.921441
0.311374 -0.000000 -0.309734 0.000000 -0.388517 0.921441
0.132300 0.630000 -0.044100 0.000000 -1.000000 0.000000
0.311374 -0.000000 0.309837 0.051578 -0.375647 -0.925327
0.045037 0.630000 0.039236 0.051578 -0.375647 -0.925327
0.132300 0.630000 0.044100 0.051578 -0.375647 -0.925327
0.132300 -0.630000 0.044100 0.051578 0.375647 -0.925327
0.045037 -0.630000 0.039236 0.051578 0.375647 -0.925327
0.311374 -0.000000 0.309837 0.051578 0.375647 -0.925327
0.311374 -0.000000 0.309837 -0.919601 0.392744 -0.009258
0.045037 -0.630000 0.039236 -0.919601 0.392744 -0.009258
0.044100 -0.630000 0.132300 -0.919601 0.392744 -0.009258
-0.044100 -0.630000 0.132300 0.000000 1.000000 -0.000000
-0.311374 -0.000000 0.441000 0.920581 0.390551 0.000000
-0.044100 -0.630000 0.132300 0.920581 0.390551 0.000000
-0.311374 -0.000000 0.309837 0.920581 0.390551 0.000000
-0.045037 -0.630000 0.039236 -0.051578 0.375647 -0.925327
-0.132300 -0.630000 0.044100 -0.051578 0.375647 -0.925327
-0.311374 -0.000000 0.309837 -0.051578 0.375647 -0.925327
0.132300 -0.630000 0.044100 -0.000000 1.000000 0.000001
0.000000 0.900000 -0.000000 0.000000 0.440015 -0.897990
0.045037 -0.630000 -0.039236 0.000000 1.000000 -0.000000
3 0 1 2
3 3 4 5
3 6 7 8
3 9 10 11
3 12 13 14
3 15 16 17
3 18 19 20
3 21 22 23
3 24 25 1
3 26 27 7
3 28 29 10
3 30 31 13
3 32 33 4
3 34 35 16
3 36 37 19
3 38 39 22
3 40 41 42
3 41 6 8
3 43 44 45
3 44 15 46
3 47 48 40
3 49 50 43
3 51 52 53
3 52 9 54
3 55 56 57
3 56 18 58
3 59 60 51
3 61 62 55
3 63 64 65
3 64 0 2
3 66 67 68
3 67 3 5
3 69 70 63
3 71 72 66
3 73 74 75
3 74 12 76
3 77 78 79
3 78 21 80
3 81 82 73
3 83 84 77
3 85 86 87
3 88 89 90
3 91 92 93
3 94 95 96
3 97 98 93
3 93 99 100
3 101 102 100
3 103 104 105
3 106 107 108
3 109 110 111
3 112 113 114
3 115 116 117
3 118 119 120
3 121 122 123
3 124 125 126
3 127 128 100
3 129 130 131
3 132 133 134
3 135 136 137
3 138 139 140
3 141 142 143
3 144 145 146
3 147 148 149
3 148 150 151
3 152 153 154
3 155 156 157
3 15 17 46
3 7 158 8
3 16 159 17
3 160 161 162
3 163 164 165
3 98 99 93
3 166 167 168
3 169 170 171
3 0 24 1
3 6 26 7
3 9 28 10
3 12 30 13
3 3 32 4
3 15 34 16
3 18 36 19
3 21 38 22
3 41 172 42
3 173 174 175
3 44 46 45
3 4 176 5
3 48 41 40
3 50 44 43
3 177 178 179
3 180 181 182
3 183 184 185
3 186 187 188
3 60 52 51
3 62 56 55
3 64 189 65
3 190 191 192
3 67 193 68
3 194 195 196
3 70 64 63
3 72 67 66
3 197 198 199
3 200 201 202
3 203 204 205
3 206 207 169
3 82 74 73
3 84 78 77
3 208 209 210
3 211 212 213
3 128 91 93
3 214 215 216
3 148 217 149
3 128 93 100
3 99 101 100
3 218 219 220
3 221 222 223
3 224 225 226
3 227 228 229
3 230 231 232
3 233 234 235
3 236 237 238
3 239 240 241
3 242 127 100
3 243 244 245
3 246 247 248
3 249 250 251
3 252 138 140
3 253 254 255
3 256 257 258
3 217 148 151
3 150 259 151
3 1 260 2
3 156 261 157
